<?xml version="1.0" standalone="no"?>
<!DOCTYPE svg PUBLIC "-//W3C//DTD SVG 20010904//EN"
 "http://www.w3.org/TR/2001/REC-SVG-20010904/DTD/svg10.dtd">
<svg version="1.0" xmlns="http://www.w3.org/2000/svg"
 width="512.000000pt" height="512.000000pt" viewBox="0 0 512.000000 512.000000"
 preserveAspectRatio="xMidYMid meet">
<metadata>
Created by potrace 1.11, written by Peter Selinger 2001-2013
</metadata>
<g transform="translate(0.000000,512.000000) scale(0.100000,-0.100000)"
fill="#000000" stroke="none">
<path d="M2170 4725 l0 -395 -395 0 -395 0 0 -395 0 -395 -200 0 -200 0 0
-390 0 -390 -195 0 -195 0 0 -1380 0 -1380 395 0 395 0 0 1180 0 1180 195 0
195 0 0 -195 0 -195 200 0 200 0 0 -985 0 -985 390 0 390 0 0 985 0 985 200 0
200 0 0 195 0 195 195 0 195 0 0 -1180 0 -1180 395 0 395 0 0 1380 0 1380
-195 0 -195 0 0 390 0 390 -200 0 -200 0 0 395 0 395 -395 0 -395 0 0 395 0
395 -390 0 -390 0 0 -395z m780 -790 l0 -395 200 0 200 0 0 -590 0 -590 -200
0 -200 0 0 -195 0 -195 -390 0 -390 0 0 195 0 195 -200 0 -200 0 0 590 0 590
200 0 200 0 0 395 0 395 390 0 390 0 0 -395z"/>
</g>
</svg>
